<svg xmlns="http://www.w3.org/2000/svg" version="1.1" xmlns:xlink="http://www.w3.org/1999/xlink" xmlns:svgjs="http://svgjs.com/svgjs" width="1440" height="560" preserveAspectRatio="none" viewBox="0 0 1440 560"><g mask="url(&quot;#SvgjsMask1002&quot;)" fill="none"><rect width="1440" height="560" x="0" y="0" fill="#1e3266"></rect><path d="M1536 560L0 560 L0 359.86Q50.27 290.13, 120 340.41Q150.06 250.48, 240 280.54Q320.04 240.58, 360 320.62Q419.1 307.72, 432 366.81Q451.43 314.24, 504 333.66Q553.65 263.32, 624 312.97Q678 294.98, 696 348.98Q740.64 321.62, 768 366.26Q780.99 307.25, 840 320.24Q882.19 242.43, 960 284.62Q1019.28 271.9, 1032 331.18Q1051.43 278.62, 1104 298.05Q1186.77 260.81, 1224 343.58Q1295.71 295.29, 1344 367.01Q1373.77 324.78, 1416 354.55Q1468.87 287.41, 1536 340.28z" fill="#182f5d"></path><path d="M1464 560L0 560 L0 424.6Q15.39 367.99, 72 383.38Q96.65 336.03, 144 360.69Q197.08 341.77, 216 394.86Q289.1 347.96, 336 421.06Q381.72 394.78, 408 440.5Q431.62 344.12, 528 367.74Q594.76 314.5, 648 381.27Q730.63 343.9, 768 426.54Q796.57 383.11, 840 411.68Q877.32 329, 960 366.32Q1032.76 319.07, 1080 391.83Q1155.77 347.6, 1200 423.37Q1213.12 364.49, 1272 377.6Q1299.44 333.04, 1344 360.48Q1419.43 315.92, 1464 391.35z" fill="#25467d"></path><path d="M1560 560L0 560 L0 477.35Q44.26 449.62, 72 493.88Q111.78 413.66, 192 453.44Q237.62 427.06, 264 472.67Q303.79 392.46, 384 432.25Q438.01 366.26, 504 420.27Q573.06 417.32, 576 486.38Q593.07 431.44, 648 448.51Q694.25 422.75, 720 469Q764.42 441.43, 792 485.85Q834.61 456.46, 864 499.06Q907.55 422.61, 984 466.15Q1024.17 386.32, 1104 426.49Q1147.76 398.25, 1176 442.02Q1254.66 400.68, 1296 479.34Q1341.61 452.94, 1368 498.55Q1412.36 470.9, 1440 515.26Q1472.77 428.03, 1560 460.8z" fill="#356cb1"></path><path d="M1512 560L0 560 L0 555.07Q22.69 505.76, 72 528.44Q156.52 492.97, 192 577.49Q217.61 531.1, 264 556.7Q308.71 481.41, 384 526.12Q432.53 454.65, 504 503.19Q560.41 487.6, 576 544.01Q651.85 499.86, 696 575.71Q706.08 513.79, 768 523.87Q810.46 494.33, 840 536.79Q891.46 516.25, 912 567.7Q937.76 473.46, 1032 499.22Q1078.21 473.43, 1104 519.64Q1160.51 504.14, 1176 560.65Q1223.72 536.38, 1248 584.1Q1251.12 515.22, 1320 518.33Q1387.35 465.68, 1440 533.03Q1457.16 478.19, 1512 495.35z" fill="white"></path></g><defs><mask id="SvgjsMask1002"><rect width="1440" height="560" fill="#ffffff"></rect></mask></defs></svg>