<svg version="1.2" baseProfile="tiny-ps" xmlns="http://www.w3.org/2000/svg" viewBox="0 0 512 512" width="512" height="512"><title>pic2</title><style>tspan { white-space:pre }.shp0 { fill: none;stroke: #000000;stroke-width: 20 } </style><path class="shp0" d="M121.3 343.17C72.47 343.17 33 277.61 33 196.5C33 115.39 72.47 49.83 121.3 49.83C170.12 49.83 209.59 115.39 209.59 196.5C209.59 277.61 170.12 343.17 121.3 343.17Z" /><path class="shp0" d="M208.72 460.67L461 462.33L456.65 180.67C456.65 180.67 457.52 122.61 427.94 93.17C398.37 63.73 359.22 49 359.22 49L120.86 49" /><path class="shp0" d="M216.55 469L208.72 196.5L207.85 196.5" /><path class="shp0" d="M118.25 278.17C91.31 278.17 69.54 241.66 69.54 196.5C69.54 151.34 91.31 114.83 118.25 114.83C145.19 114.83 166.97 151.34 166.97 196.5C166.97 241.66 145.19 278.17 118.25 278.17Z" /><path class="shp0" d="M115.64 340.67L206.11 344.83" /></svg>