<svg version="1.2" baseProfile="tiny-ps" xmlns="http://www.w3.org/2000/svg" viewBox="0 0 600 600" width="600" height="600"><title>New Project</title><style>tspan { white-space:pre }.shp0 { fill: none;stroke: #000000;stroke-width: 20 } </style><path class="shp0" d="M300.5 292C236.08 292 184 239.03 184 173.5C184 107.97 236.08 55 300.5 55C364.92 55 417 107.97 417 173.5C417 239.03 364.92 292 300.5 292Z" /><path class="shp0" d="M184 312L415 312C470.3 312 515 356.7 515 412L515 638C515 693.3 470.3 738 415 738L184 738C128.7 738 84 693.3 84 638L84 412C84 356.7 128.7 312 184 312Z" /></svg>