<svg version="1.2" baseProfile="tiny-ps" xmlns="http://www.w3.org/2000/svg" viewBox="0 0 600 600" width="600" height="600"><title>New Project</title><style>tspan { white-space:pre }.shp0 { fill: none;stroke: #000000;stroke-width: 20 } </style><path class="shp0" d="M185 42L401 42C409.85 42 417 49.15 417 58L417 267C417 275.85 409.85 283 401 283L185 283C176.15 283 169 275.85 169 267L169 58C169 49.15 176.15 42 185 42Z" /><path class="shp0" d="M88 306L506 306C514.85 306 522 313.15 522 322L522 630C522 638.85 514.85 646 506 646L88 646C79.15 646 72 638.85 72 630L72 322C72 313.15 79.15 306 88 306Z" /></svg>